Passive_0002_3plates.mot
version=1
nRows=67
nColumns=19
inDegrees=yes
endheader
time	ground_force_vx	ground_force_vy	ground_force_vz	ground_force_px	ground_force_py	ground_force_pz	1_ground_force_vx	1_ground_force_vy	1_ground_force_vz	1_ground_force_px	1_ground_force_py	1_ground_force_pz	ground_torque_x	ground_torque_y	ground_torque_z	1_ground_torque_x	1_ground_torque_y	1_ground_torque_z
0.933646	0.000000	0.000000	0.000000	0.000000	0.000000	0.000000	-40.619336	555.209093	-25.454732	0.415952	0.000000	0.348809	0.000000	0.000000	0.000000	0.000000	5.709481	0.000000
0.934063	0.000000	0.000000	0.000000	0.000000	0.000000	0.000000	-40.388622	554.695639	-25.403019	0.416551	0.000000	0.348745	0.000000	0.000000	0.000000	0.000000	5.680686	0.000000
0.934480	0.000000	0.000000	0.000000	0.000000	0.000000	0.000000	-40.290361	554.172468	-25.240568	0.416386	0.000000	0.349005	0.000000	0.000000	0.000000	0.000000	5.616575	0.000000
0.934896	0.000000	0.000000	0.000000	0.000000	0.000000	0.000000	-40.201333	553.490406	-25.209160	0.416561	0.000000	0.348729	0.000000	0.000000	0.000000	0.000000	5.605648	0.000000
0.935313	0.000000	0.000000	0.000000	0.000000	0.000000	0.000000	-40.061339	553.574025	-25.255776	0.416839	0.000000	0.348885	0.000000	0.000000	0.000000	0.000000	5.587858	0.000000
0.935730	0.000000	0.000000	0.000000	0.000000	0.000000	0.000000	-40.062089	552.800587	-25.202425	0.416581	0.000000	0.348761	0.000000	0.000000	0.000000	0.000000	5.568223	0.000000
0.936147	0.000000	0.000000	0.000000	0.000000	0.000000	0.000000	-39.831045	553.324711	-25.134336	0.417250	0.000000	0.348664	0.000000	0.000000	0.000000	0.000000	5.486857	0.000000
0.936564	0.000000	0.000000	0.000000	0.000000	0.000000	0.000000	-39.696884	552.725900	-25.063417	0.417260	0.000000	0.348497	0.000000	0.000000	0.000000	0.000000	5.540381	0.000000
0.936980	0.000000	0.000000	0.000000	0.000000	0.000000	0.000000	-39.397965	551.603462	-25.079036	0.416716	0.000000	0.348624	0.000000	0.000000	0.000000	0.000000	5.503703	0.000000
0.937397	0.000000	0.000000	0.000000	0.000000	0.000000	0.000000	-39.396325	551.779548	-25.120058	0.417448	0.000000	0.348517	0.000000	0.000000	0.000000	0.000000	5.448101	0.000000
0.937814	0.000000	0.000000	0.000000	0.000000	0.000000	0.000000	-39.461998	551.780684	-25.091667	0.417362	0.000000	0.348492	0.000000	0.000000	0.000000	0.000000	5.338692	0.000000
0.938231	0.000000	0.000000	0.000000	0.000000	0.000000	0.000000	-39.254610	550.400114	-25.059303	0.417557	0.000000	0.348530	0.000000	0.000000	0.000000	0.000000	5.363436	0.000000
0.938648	0.000000	0.000000	0.000000	0.000000	0.000000	0.000000	-39.069746	551.353836	-24.751441	0.418288	0.000000	0.348476	0.000000	0.000000	0.000000	0.000000	5.382676	0.000000
0.939064	0.000000	0.000000	0.000000	0.000000	0.000000	0.000000	-39.020724	550.748353	-24.699411	0.417932	0.000000	0.348564	0.000000	0.000000	0.000000	0.000000	5.309362	0.000000
0.939481	0.000000	0.000000	0.000000	0.000000	0.000000	0.000000	-38.788211	549.718711	-24.617004	0.418246	0.000000	0.348462	0.000000	0.000000	0.000000	0.000000	5.197941	0.000000
0.939898	0.000000	0.000000	0.000000	0.000000	0.000000	0.000000	-38.559293	549.287735	-24.682901	0.418164	0.000000	0.348522	0.000000	0.000000	0.000000	0.000000	5.188999	0.000000
0.940315	0.000000	0.000000	0.000000	0.000000	0.000000	0.000000	-38.564314	549.379526	-24.640341	0.418392	0.000000	0.348290	0.000000	0.000000	0.000000	0.000000	5.279523	0.000000
0.940732	0.000000	0.000000	0.000000	0.000000	0.000000	0.000000	-38.425346	549.295660	-24.592561	0.418576	0.000000	0.348273	0.000000	0.000000	0.000000	0.000000	5.233912	0.000000
0.941148	0.000000	0.000000	0.000000	0.000000	0.000000	0.000000	-38.350594	549.376256	-24.703650	0.418889	0.000000	0.348538	0.000000	0.000000	0.000000	0.000000	5.143180	0.000000
0.941565	0.000000	0.000000	0.000000	0.000000	0.000000	0.000000	-37.984013	548.522636	-24.446687	0.418837	0.000000	0.348355	0.000000	0.000000	0.000000	0.000000	5.096697	0.000000
0.941982	0.000000	0.000000	0.000000	0.000000	0.000000	0.000000	-37.916522	548.613259	-24.512725	0.419192	0.000000	0.348225	0.000000	0.000000	0.000000	0.000000	5.078227	0.000000
0.942399	0.000000	0.000000	0.000000	0.000000	0.000000	0.000000	-37.840650	548.356669	-24.277051	0.419272	0.000000	0.348243	0.000000	0.000000	0.000000	0.000000	4.913660	0.000000
0.942816	0.000000	0.000000	0.000000	0.000000	0.000000	0.000000	-37.799734	548.187374	-24.368298	0.419060	0.000000	0.348107	0.000000	0.000000	0.000000	0.000000	4.968385	0.000000
0.943232	0.000000	0.000000	0.000000	0.000000	0.000000	0.000000	-37.799993	547.751634	-24.436403	0.419156	0.000000	0.348223	0.000000	0.000000	0.000000	0.000000	5.040338	0.000000
0.943649	0.000000	0.000000	0.000000	0.000000	0.000000	0.000000	-37.775076	548.099794	-24.434067	0.419392	0.000000	0.348164	0.000000	0.000000	0.000000	0.000000	4.949636	0.000000
0.944066	0.000000	0.000000	0.000000	0.000000	0.000000	0.000000	-37.454534	548.284513	-24.227713	0.420120	0.000000	0.347881	0.000000	0.000000	0.000000	0.000000	4.894712	0.000000
0.944483	0.000000	0.000000	0.000000	0.000000	0.000000	0.000000	-37.315567	547.851296	-24.069577	0.419950	0.000000	0.347993	0.000000	0.000000	0.000000	0.000000	4.921836	0.000000
0.944900	0.000000	0.000000	0.000000	0.000000	0.000000	0.000000	-37.201552	547.859504	-24.108562	0.420481	0.000000	0.347758	0.000000	0.000000	0.000000	0.000000	4.848263	0.000000
0.945316	0.000000	0.000000	0.000000	0.000000	0.000000	0.000000	-37.149062	547.422628	-24.013084	0.420382	0.000000	0.348006	0.000000	0.000000	0.000000	0.000000	4.765911	0.000000
0.945733	0.000000	0.000000	0.000000	0.000000	0.000000	0.000000	-36.898154	547.601703	-23.923543	0.420503	0.000000	0.347886	0.000000	0.000000	0.000000	0.000000	4.739412	0.000000
0.946150	0.000000	0.000000	0.000000	0.000000	0.000000	0.000000	-36.759119	547.082744	-23.786517	0.420506	0.000000	0.347974	0.000000	0.000000	0.000000	0.000000	4.766052	0.000000
0.946567	0.000000	0.000000	0.000000	0.000000	0.000000	0.000000	-36.669971	546.743369	-23.871254	0.420321	0.000000	0.347795	0.000000	0.000000	0.000000	0.000000	4.720316	0.000000
0.946984	0.000000	0.000000	0.000000	0.000000	0.000000	0.000000	-36.483446	546.315555	-23.706333	0.420516	0.000000	0.347763	0.000000	0.000000	0.000000	0.000000	4.646652	0.000000
0.947401	0.000000	0.000000	0.000000	0.000000	0.000000	0.000000	-36.497761	545.707070	-23.694683	0.420874	0.000000	0.347959	0.000000	0.000000	0.000000	0.000000	4.508308	0.000000
0.947817	0.000000	0.000000	0.000000	0.000000	0.000000	0.000000	-36.455259	545.713472	-23.603976	0.420799	0.000000	0.347739	0.000000	0.000000	0.000000	0.000000	4.526458	0.000000
0.948234	0.000000	0.000000	0.000000	0.000000	0.000000	0.000000	-36.179621	545.979458	-23.601611	0.420991	0.000000	0.347629	0.000000	0.000000	0.000000	0.000000	4.418269	0.000000
0.948651	0.000000	0.000000	0.000000	0.000000	0.000000	0.000000	-35.766715	545.553310	-23.419240	0.421250	0.000000	0.347599	0.000000	0.000000	0.000000	0.000000	4.418126	0.000000
0.949068	0.000000	0.000000	0.000000	0.000000	0.000000	0.000000	-36.035414	545.287161	-23.301586	0.421419	0.000000	0.347777	0.000000	0.000000	0.000000	0.000000	4.389079	0.000000
0.949485	0.000000	0.000000	0.000000	0.000000	0.000000	0.000000	-35.917654	544.337321	-23.202646	0.421478	0.000000	0.347841	0.000000	0.000000	0.000000	0.000000	4.360006	0.000000
0.949901	0.000000	0.000000	0.000000	0.000000	0.000000	0.000000	-35.807160	544.341494	-23.338895	0.421449	0.000000	0.347711	0.000000	0.000000	0.000000	0.000000	4.378667	0.000000
0.950318	0.000000	0.000000	0.000000	0.000000	0.000000	0.000000	-35.736056	544.956770	-23.197045	0.421936	0.000000	0.347413	0.000000	0.000000	0.000000	0.000000	4.205885	0.000000
0.950735	0.000000	0.000000	0.000000	0.000000	0.000000	0.000000	-35.600823	544.616067	-23.238807	0.421756	0.000000	0.347295	0.000000	0.000000	0.000000	0.000000	4.187642	0.000000
0.951152	0.000000	0.000000	0.000000	0.000000	0.000000	0.000000	-35.182504	544.093855	-23.192072	0.421986	0.000000	0.347632	0.000000	0.000000	0.000000	0.000000	4.142409	0.000000
0.951569	0.000000	0.000000	0.000000	0.000000	0.000000	0.000000	-35.135113	543.404279	-22.827639	0.421924	0.000000	0.347615	0.000000	0.000000	0.000000	0.000000	4.195418	0.000000
0.951985	0.000000	0.000000	0.000000	0.000000	0.000000	0.000000	-35.202912	543.757895	-22.753349	0.422273	0.000000	0.347332	0.000000	0.000000	0.000000	0.000000	4.076554	0.000000
0.952402	0.000000	0.000000	0.000000	0.000000	0.000000	0.000000	-35.018656	543.327261	-22.727753	0.422270	0.000000	0.347372	0.000000	0.000000	0.000000	0.000000	4.058095	0.000000
0.952819	0.000000	0.000000	0.000000	0.000000	0.000000	0.000000	-34.997902	543.328503	-22.729752	0.422393	0.000000	0.347314	0.000000	0.000000	0.000000	0.000000	4.112529	0.000000
0.953236	0.000000	0.000000	0.000000	0.000000	0.000000	0.000000	-34.833423	542.982703	-22.724140	0.422335	0.000000	0.347431	0.000000	0.000000	0.000000	0.000000	4.012434	0.000000
0.953653	0.000000	0.000000	0.000000	0.000000	0.000000	0.000000	-34.721069	543.424018	-22.700356	0.422931	0.000000	0.347135	0.000000	0.000000	0.000000	0.000000	3.975959	0.000000
0.954069	0.000000	0.000000	0.000000	0.000000	0.000000	0.000000	-34.607178	543.168752	-22.585242	0.422656	0.000000	0.347054	0.000000	0.000000	0.000000	0.000000	3.957855	0.000000
0.954486	0.000000	0.000000	0.000000	0.000000	0.000000	0.000000	-34.651399	542.737371	-22.579136	0.422792	0.000000	0.347034	0.000000	0.000000	0.000000	0.000000	3.929199	0.000000
0.954903	0.000000	0.000000	0.000000	0.000000	0.000000	0.000000	-34.557571	542.308637	-22.638546	0.423345	0.000000	0.346976	0.000000	0.000000	0.000000	0.000000	3.863928	0.000000
0.955320	0.000000	0.000000	0.000000	0.000000	0.000000	0.000000	-34.368196	542.476625	-22.259913	0.423217	0.000000	0.347261	0.000000	0.000000	0.000000	0.000000	3.855972	0.000000
0.955737	0.000000	0.000000	0.000000	0.000000	0.000000	0.000000	-34.460718	542.306813	-22.344905	0.423273	0.000000	0.347123	0.000000	0.000000	0.000000	0.000000	3.818701	0.000000
0.956153	0.000000	0.000000	0.000000	0.000000	0.000000	0.000000	-34.025571	542.659183	-22.056426	0.423267	0.000000	0.347065	0.000000	0.000000	0.000000	0.000000	3.802396	0.000000
0.956570	0.000000	0.000000	0.000000	0.000000	0.000000	0.000000	-33.959207	542.057652	-22.342618	0.423237	0.000000	0.346972	0.000000	0.000000	0.000000	0.000000	3.765186	0.000000
0.956987	0.000000	0.000000	0.000000	0.000000	0.000000	0.000000	-34.046665	541.279137	-22.264677	0.423175	0.000000	0.347018	0.000000	0.000000	0.000000	0.000000	3.699551	0.000000
0.957404	0.000000	0.000000	0.000000	0.000000	0.000000	0.000000	-34.042977	541.454497	-21.969600	0.424041	0.000000	0.346945	0.000000	0.000000	0.000000	0.000000	3.698048	0.000000
0.957821	0.000000	0.000000	0.000000	0.000000	0.000000	0.000000	-33.860193	541.623247	-22.066437	0.423548	0.000000	0.347153	0.000000	0.000000	0.000000	0.000000	3.709342	0.000000
0.958237	0.000000	0.000000	0.000000	0.000000	0.000000	0.000000	-33.750683	541.894783	-22.108414	0.423524	0.000000	0.346750	0.000000	0.000000	0.000000	0.000000	3.646193	0.000000
0.958654	0.000000	0.000000	0.000000	0.000000	0.000000	0.000000	-33.771573	541.723944	-22.080822	0.424314	0.000000	0.346678	0.000000	0.000000	0.000000	0.000000	3.635188	0.000000
0.959071	0.000000	0.000000	0.000000	0.000000	0.000000	0.000000	-33.629217	542.328861	-21.835154	0.424483	0.000000	0.346767	0.000000	0.000000	0.000000	0.000000	3.554563	0.000000
0.959488	0.000000	0.000000	0.000000	0.000000	0.000000	0.000000	-33.538875	541.644711	-21.781508	0.424348	0.000000	0.346572	0.000000	0.000000	0.000000	0.000000	3.516950	0.000000
0.959905	0.000000	0.000000	0.000000	0.000000	0.000000	0.000000	-33.464494	541.464052	-21.759480	0.424459	0.000000	0.346907	0.000000	0.000000	0.000000	0.000000	3.498785	0.000000
0.960322	0.000000	0.000000	0.000000	0.000000	0.000000	0.000000	-33.310609	541.211517	-22.028728	0.424229	0.000000	0.346699	0.000000	0.000000	0.000000	0.000000	3.508349	0.000000
0.960738	0.000000	0.000000	0.000000	0.000000	0.000000	0.000000	-33.263834	541.992165	-21.941562	0.424648	0.000000	0.346611	0.000000	0.000000	0.000000	0.000000	3.463732	0.000000
0.961155	0.000000	0.000000	0.000000	0.000000	0.000000	0.000000	-33.214306	541.646984	-21.756026	0.424459	0.000000	0.346661	0.000000	0.000000	0.000000	0.000000	3.399605	0.000000
